<svg width="48" height="48" viewBox="0 0 48 48" fill="none" xmlns="http://www.w3.org/2000/svg">
<rect width="4" height="4" transform="translate(12)" fill="#0D0404"/>
<rect width="4" height="4" transform="translate(16)" fill="#0D0404"/>
<rect width="4" height="4" transform="translate(20)" fill="#0D0404"/>
<rect width="4" height="4" transform="translate(24)" fill="#0D0404"/>
<rect width="4" height="4" transform="translate(28)" fill="#0D0404"/>
<rect width="4" height="4" transform="translate(32)" fill="#0D0404"/>
<rect width="4" height="4" transform="translate(8 4)" fill="#0D0404"/>
<rect width="4" height="4" transform="translate(12 4)" fill="#5C5A1A"/>
<rect width="4" height="4" transform="translate(16 4)" fill="#5C5A1A"/>
<rect width="4" height="4" transform="translate(20 4)" fill="#5C5A1A"/>
<rect width="4" height="4" transform="translate(24 4)" fill="#5C5A1A"/>
<rect width="4" height="4" transform="translate(28 4)" fill="#5C5A1A"/>
<rect width="4" height="4" transform="translate(32 4)" fill="#5C5A1A"/>
<rect width="4" height="4" transform="translate(36 4)" fill="#0D0404"/>
<rect width="4" height="4" transform="translate(4 8)" fill="#0D0404"/>
<rect width="4" height="4" transform="translate(8 8)" fill="#5C5A1A"/>
<rect width="4" height="4" transform="translate(12 8)" fill="#F2E88C"/>
<rect width="4" height="4" transform="translate(16 8)" fill="#F2E88C"/>
<rect width="4" height="4" transform="translate(20 8)" fill="#F2E88C"/>
<rect width="4" height="4" transform="translate(24 8)" fill="#F2E88C"/>
<rect width="4" height="4" transform="translate(28 8)" fill="#F2E88C"/>
<rect width="4" height="4" transform="translate(32 8)" fill="#F2E88C"/>
<rect width="4" height="4" transform="translate(36 8)" fill="#5C5A1A"/>
<rect width="4" height="4" transform="translate(40 8)" fill="#0D0404"/>
<rect width="4" height="4" transform="translate(0 12)" fill="#0D0404"/>
<rect width="4" height="4" transform="translate(4 12)" fill="#5C5A1A"/>
<rect width="4" height="4" transform="translate(8 12)" fill="#F2E88C"/>
<rect width="4" height="4" transform="translate(12 12)" fill="#F2E88C"/>
<rect width="4" height="4" transform="translate(16 12)" fill="#F2E88C"/>
<rect width="4" height="4" transform="translate(20 12)" fill="#F2E88C"/>
<rect width="4" height="4" transform="translate(24 12)" fill="#F2E88C"/>
<rect width="4" height="4" transform="translate(28 12)" fill="#F2E88C"/>
<rect width="4" height="4" transform="translate(32 12)" fill="#D6C845"/>
<rect width="4" height="4" transform="translate(36 12)" fill="#D6C845"/>
<rect width="4" height="4" transform="translate(40 12)" fill="#5C5A1A"/>
<rect width="4" height="4" transform="translate(44 12)" fill="#0D0404"/>
<rect width="4" height="4" transform="translate(0 16)" fill="#0D0404"/>
<rect width="4" height="4" transform="translate(4 16)" fill="#5C5A1A"/>
<rect width="4" height="4" transform="translate(8 16)" fill="#F2E88C"/>
<rect width="4" height="4" transform="translate(12 16)" fill="#F2E88C"/>
<rect width="4" height="4" transform="translate(16 16)" fill="#F2E88C"/>
<rect width="4" height="4" transform="translate(20 16)" fill="#F2E88C"/>
<rect width="4" height="4" transform="translate(24 16)" fill="#F2E88C"/>
<rect width="4" height="4" transform="translate(28 16)" fill="#F2E88C"/>
<rect width="4" height="4" transform="translate(32 16)" fill="#D6C845"/>
<rect width="4" height="4" transform="translate(36 16)" fill="#D6C845"/>
<rect width="4" height="4" transform="translate(40 16)" fill="#5C5A1A"/>
<rect width="4" height="4" transform="translate(44 16)" fill="#0D0404"/>
<rect width="4" height="4" transform="translate(0 20)" fill="#0D0404"/>
<rect width="4" height="4" transform="translate(4 20)" fill="#5C5A1A"/>
<rect width="4" height="4" transform="translate(8 20)" fill="#F2E88C"/>
<rect width="4" height="4" transform="translate(12 20)" fill="#F2E88C"/>
<rect width="4" height="4" transform="translate(16 20)" fill="#7A721E"/>
<rect width="4" height="4" transform="translate(20 20)" fill="#7A721E"/>
<rect width="4" height="4" transform="translate(24 20)" fill="#7A721E"/>
<rect width="4" height="4" transform="translate(28 20)" fill="#7A721E"/>
<rect width="4" height="4" transform="translate(32 20)" fill="#D6C845"/>
<rect width="4" height="4" transform="translate(36 20)" fill="#D6C845"/>
<rect width="4" height="4" transform="translate(40 20)" fill="#5C5A1A"/>
<rect width="4" height="4" transform="translate(44 20)" fill="#0D0404"/>
<rect width="4" height="4" transform="translate(0 24)" fill="#0D0404"/>
<rect width="4" height="4" transform="translate(4 24)" fill="#5C5A1A"/>
<rect width="4" height="4" transform="translate(8 24)" fill="#F2E88C"/>
<rect width="4" height="4" transform="translate(12 24)" fill="#F2E88C"/>
<rect width="4" height="4" transform="translate(16 24)" fill="#7A721E"/>
<rect width="4" height="4" transform="translate(20 24)" fill="#7A721E"/>
<rect width="4" height="4" transform="translate(24 24)" fill="#7A721E"/>
<rect width="4" height="4" transform="translate(28 24)" fill="#7A721E"/>
<rect width="4" height="4" transform="translate(32 24)" fill="#D6C845"/>
<rect width="4" height="4" transform="translate(36 24)" fill="#D6C845"/>
<rect width="4" height="4" transform="translate(40 24)" fill="#5C5A1A"/>
<rect width="4" height="4" transform="translate(44 24)" fill="#0D0404"/>
<rect width="4" height="4" transform="translate(0 28)" fill="#0D0404"/>
<rect width="4" height="4" transform="translate(4 28)" fill="#5C5A1A"/>
<rect width="4" height="4" transform="translate(8 28)" fill="#F2E88C"/>
<rect width="4" height="4" transform="translate(12 28)" fill="#F2E88C"/>
<rect width="4" height="4" transform="translate(16 28)" fill="#F2E88C"/>
<rect width="4" height="4" transform="translate(20 28)" fill="#F2E88C"/>
<rect width="4" height="4" transform="translate(24 28)" fill="#F2E88C"/>
<rect width="4" height="4" transform="translate(28 28)" fill="#F2E88C"/>
<rect width="4" height="4" transform="translate(32 28)" fill="#D6C845"/>
<rect width="4" height="4" transform="translate(36 28)" fill="#D6C845"/>
<rect width="4" height="4" transform="translate(40 28)" fill="#5C5A1A"/>
<rect width="4" height="4" transform="translate(44 28)" fill="#0D0404"/>
<rect width="4" height="4" transform="translate(0 32)" fill="#0D0404"/>
<rect width="4" height="4" transform="translate(4 32)" fill="#5C5A1A"/>
<rect width="4" height="4" transform="translate(8 32)" fill="#F2E88C"/>
<rect width="4" height="4" transform="translate(12 32)" fill="#D6C845"/>
<rect width="4" height="4" transform="translate(16 32)" fill="#D6C845"/>
<rect width="4" height="4" transform="translate(20 32)" fill="#D6C845"/>
<rect width="4" height="4" transform="translate(24 32)" fill="#D6C845"/>
<rect width="4" height="4" transform="translate(28 32)" fill="#D6C845"/>
<rect width="4" height="4" transform="translate(32 32)" fill="#D6C845"/>
<rect width="4" height="4" transform="translate(36 32)" fill="#D6C845"/>
<rect width="4" height="4" transform="translate(40 32)" fill="#5C5A1A"/>
<rect width="4" height="4" transform="translate(44 32)" fill="#0D0404"/>
<rect width="4" height="4" transform="translate(4 36)" fill="#0D0404"/>
<rect width="4" height="4" transform="translate(8 36)" fill="#5C5A1A"/>
<rect width="4" height="4" transform="translate(12 36)" fill="#D6C845"/>
<rect width="4" height="4" transform="translate(16 36)" fill="#D6C845"/>
<rect width="4" height="4" transform="translate(20 36)" fill="#D6C845"/>
<rect width="4" height="4" transform="translate(24 36)" fill="#D6C845"/>
<rect width="4" height="4" transform="translate(28 36)" fill="#D6C845"/>
<rect width="4" height="4" transform="translate(32 36)" fill="#D6C845"/>
<rect width="4" height="4" transform="translate(36 36)" fill="#5C5A1A"/>
<rect width="4" height="4" transform="translate(40 36)" fill="#0D0404"/>
<rect width="4" height="4" transform="translate(8 40)" fill="#0D0404"/>
<rect width="4" height="4" transform="translate(12 40)" fill="#5C5A1A"/>
<rect width="4" height="4" transform="translate(16 40)" fill="#5C5A1A"/>
<rect width="4" height="4" transform="translate(20 40)" fill="#5C5A1A"/>
<rect width="4" height="4" transform="translate(24 40)" fill="#5C5A1A"/>
<rect width="4" height="4" transform="translate(28 40)" fill="#5C5A1A"/>
<rect width="4" height="4" transform="translate(32 40)" fill="#5C5A1A"/>
<rect width="4" height="4" transform="translate(36 40)" fill="#0D0404"/>
<rect width="4" height="4" transform="translate(12 44)" fill="#0D0404"/>
<rect width="4" height="4" transform="translate(16 44)" fill="#0D0404"/>
<rect width="4" height="4" transform="translate(20 44)" fill="#0D0404"/>
<rect width="4" height="4" transform="translate(24 44)" fill="#0D0404"/>
<rect width="4" height="4" transform="translate(28 44)" fill="#0D0404"/>
<rect width="4" height="4" transform="translate(32 44)" fill="#0D0404"/>
</svg>
